<?xml version="1.0" encoding="UTF-8" standalone="no"?>
<svg
   xmlns:dc="http://purl.org/dc/elements/1.1/"
   xmlns:cc="http://creativecommons.org/ns#"
   xmlns:rdf="http://www.w3.org/1999/02/22-rdf-syntax-ns#"
   xmlns:svg="http://www.w3.org/2000/svg"
   xmlns="http://www.w3.org/2000/svg"
   xmlns:sodipodi="http://sodipodi.sourceforge.net/DTD/sodipodi-0.dtd"
   xmlns:inkscape="http://www.inkscape.org/namespaces/inkscape"
   viewBox="0 0 735 852"
   version="1.1"
   id="svg2071"
   sodipodi:docname="logo.svg"
   inkscape:version="1.0.1 (3bc2e813f5, 2020-09-07)"
   inkscape:export-filename="/home/rmagno/sci/code/R/pkg/gwasrapidd/man/figures/logo.png"
   inkscape:export-xdpi="300.01077"
   inkscape:export-ydpi="300.01077">
  <metadata
     id="metadata2075">
    <rdf:RDF>
      <cc:Work
         rdf:about="">
        <dc:format>image/svg+xml</dc:format>
        <dc:type
           rdf:resource="http://purl.org/dc/dcmitype/StillImage" />
        <dc:title>withr</dc:title>
      </cc:Work>
    </rdf:RDF>
  </metadata>
  <sodipodi:namedview
     pagecolor="#ffffff"
     bordercolor="#666666"
     borderopacity="1"
     objecttolerance="10"
     gridtolerance="10"
     guidetolerance="10"
     inkscape:pageopacity="0"
     inkscape:pageshadow="2"
     inkscape:window-width="1916"
     inkscape:window-height="1041"
     id="namedview2073"
     showgrid="false"
     inkscape:zoom="0.45254834"
     inkscape:cx="426.82539"
     inkscape:cy="409.93252"
     inkscape:window-x="0"
     inkscape:window-y="18"
     inkscape:window-maximized="1"
     inkscape:current-layer="svg2071"
     inkscape:measure-start="685.059,1879.98"
     inkscape:measure-end="726.953,1879.98"
     inkscape:document-rotation="0" />
  <defs
     id="defs1778">
    <inkscape:path-effect
       effect="bspline"
       id="path-effect5528"
       is_visible="true"
       weight="33.333333"
       steps="2"
       helper_size="0"
       apply_no_weight="true"
       apply_with_weight="true"
       only_selected="false" />
    <style
       id="style1754">.cls-1{fill:#ba6f38;}.cls-2{fill:none;}.cls-3{isolation:isolate;}.cls-4{clip-path:url(#clip-path);}.cls-5{fill:#54346f;}.cls-19,.cls-6{opacity:0.25;}.cls-6{fill:url(#linear-gradient);}.cls-7{opacity:0.9;}.cls-8{opacity:0.1;}.cls-19,.cls-8{mix-blend-mode:multiply;}.cls-11,.cls-12,.cls-25,.cls-26,.cls-27,.cls-28,.cls-29,.cls-9{fill:#fff;}.cls-10{fill:#e6b35a;}.cls-11{font-size:160px;letter-spacing:-0.03em;}.cls-11,.cls-12{font-family:MyriadPro-Regular, Myriad Pro;}.cls-12{font-size:25px;}.cls-13{letter-spacing:0.01em;}.cls-14{letter-spacing:-0.04em;}.cls-15{letter-spacing:-0.02em;}.cls-16{letter-spacing:-0.01em;}.cls-17{letter-spacing:0em;}.cls-18{opacity:0.94;}.cls-20{clip-path:url(#clip-path-2);}.cls-21{clip-path:url(#clip-path-3);}.cls-22{clip-path:url(#clip-path-4);}.cls-23{opacity:0.95;}.cls-24{clip-path:url(#clip-path-5);}.cls-25,.cls-30{opacity:0.5;}.cls-26{opacity:0.6;}.cls-27{opacity:0.8;}.cls-28{opacity:0.3;}.cls-29{opacity:0.4;}.cls-30{fill:#d7d7d7;}.cls-31{fill:#42285b;}</style>
    <clipPath
       id="clip-path">
      <polygon
         class="cls-1"
         points="369.51 7.4 728.21 214.47 728.21 636.62 369.51 845.03 2.79 636.62 2.79 214.47 369.51 7.4"
         id="polygon1756" />
    </clipPath>
    <linearGradient
       id="linear-gradient"
       x1="367.33"
       y1="-121.12"
       x2="368.63"
       y2="342.4"
       gradientUnits="userSpaceOnUse">
      <stop
         offset="0"
         stop-color="#fff"
         stop-opacity="0.83"
         id="stop1759" />
      <stop
         offset="0.56"
         stop-color="#fff"
         stop-opacity="0.37"
         id="stop1761" />
      <stop
         offset="1"
         stop-color="#fff"
         stop-opacity="0"
         id="stop1763" />
    </linearGradient>
    <clipPath
       id="clip-path-2">
      <path
         class="cls-2"
         d="M-6506.34,2588.09l-338.12,195.22-338.12-195.22V2197.66l338.12-195.21h0l338.12,195.21Z"
         id="path1766" />
    </clipPath>
    <clipPath
       id="clip-path-3">
      <polygon
         class="cls-2"
         points="-7000.53 2371.87 -6692.87 2371.87 -113.95 6553.14 -13579.45 6553.14 -7000.53 2371.87"
         id="polygon1769" />
    </clipPath>
    <clipPath
       id="clip-path-4">
      <path
         class="cls-2"
         d="M-6507.84,2586.59-6846,2781.81l-338.12-195.22V2196.16L-6846,2001h0l338.12,195.21Z"
         id="path1772" />
    </clipPath>
    <clipPath
       id="clip-path-5">
      <polygon
         class="cls-2"
         points="-7002.03 2370.37 -6694.37 2370.37 -115.45 6551.64 -13580.95 6551.64 -7002.03 2370.37"
         id="polygon1775" />
    </clipPath>
    <style
       id="style4722">.cls-1{fill:none;stroke:#000;stroke-linecap:round;stroke-linejoin:round;stroke-width:2px;}</style>
  </defs>
  <title
     id="title1780">withr</title>
  <polygon
     style="isolation:isolate;fill:#e7f7f9;fill-opacity:1;stroke:#000000;stroke-width:2px;stroke-linecap:round;stroke-linejoin:round"
     id="polygon1782-2-4-9"
     points="728.21,636.62 369.51,845.03 2.79,636.62 2.79,214.47 369.51,7.4 728.21,214.47 "
     class="cls-1"
     transform="translate(0,0.745)" />
  <path
     style="isolation:isolate;fill:#e6b35a"
     inkscape:connector-curvature="0"
     id="path1798-0-8-6"
     d="m 367,634.645 c 0.29,-0.29 0.61,-0.59 0.94,-0.89 h -0.26 c -0.19,0.3 -0.42,0.6 -0.68,0.89 z"
     class="cls-10" />
  <path
     style="isolation:isolate;fill:#398a96;fill-opacity:1"
     inkscape:connector-curvature="0"
     id="path2066-9-9-0"
     d="M 705.61,196.955 427.81,36.565 367.5,1.745 307.19,36.565 29.37,196.965 0.09,213.875 v 424.25 l 29.28,16.91 281.28,162.39 56.85,32.83 56.85,-32.83 281.26,-162.38 29.3,-16.92 v -424.25 z m 0,425.26 L 367.49,817.425 29.37,622.215 V 231.745 L 367.49,36.565 v 0 l 338.12,195.18 z"
     class="cls-31" />
  <path
     d="m 152.80623,621.7314 q -1.45791,0.8331 -4.47785,1.7703 -3.01994,0.9372 -6.97711,0.9372 -4.26958,0 -8.01847,-1.3538 -3.64476,-1.4579 -6.45644,-4.2695 -2.70753,-2.9158 -4.37371,-7.2895 -1.56204,-4.4779 -1.56204,-10.5178 0,-5.3109 1.45791,-9.6846 1.56204,-4.4779 4.37371,-7.7061 2.91581,-3.2282 7.08125,-4.9985 4.16544,-1.8745 9.47637,-1.8745 6.24816,0 10.62188,0.9373 4.47784,0.833 7.49779,1.6661 v 43.1123 q 0,11.2467 -5.72748,16.2452 -5.62335,4.9986 -17.07831,4.9986 -4.68612,0 -8.53915,-0.729 -3.7489,-0.7289 -6.6647,-1.7703 l 1.56204,-7.6019 q 2.70753,1.1455 6.14402,1.8744 3.54062,0.729 7.70606,0.729 7.4978,0 10.72601,-3.02 3.22822,-3.0199 3.22822,-9.7887 z m 0,-36.2393 q -1.24963,-0.4166 -3.43649,-0.729 -2.18686,-0.4165 -5.93575,-0.4165 -6.66471,0 -10.20533,4.5819 -3.43649,4.582 -3.43649,12.184 0,4.1654 0.93723,7.1853 1.04136,2.9158 2.70753,4.8944 1.77031,1.8745 3.95717,2.8117 2.18686,0.8331 4.68612,0.8331 3.22822,0 6.03989,-0.9372 2.91581,-0.9373 4.68612,-2.1869 z"
     style="font-style:normal;font-variant:normal;font-weight:normal;font-stretch:normal;font-size:104.136px;line-height:125%;font-family:'Ubuntu Mono Ligaturized';-inkscape-font-specification:'Ubuntu Mono Ligaturized';font-variant-ligatures:normal;font-variant-caps:normal;font-variant-numeric:normal;font-feature-settings:normal;text-align:start;letter-spacing:0px;word-spacing:0px;writing-mode:lr-tb;text-anchor:start;fill:#398a96;fill-opacity:1;stroke:none;stroke-width:1px;stroke-linecap:butt;stroke-linejoin:miter;stroke-opacity:1"
     id="path876" />
  <path
     d="m 204.56162,626.2092 q -1.56204,-3.5406 -2.70753,-6.4564 -1.1455,-2.9158 -2.29099,-5.8316 -1.04136,-2.9158 -2.18686,-6.0399 -1.04136,-3.2282 -2.49926,-7.2895 -1.45791,4.0613 -2.6034,7.2895 -1.1455,3.1241 -2.291,6.0399 -1.04136,2.9158 -2.29099,5.8316 -1.14549,2.9158 -2.70753,6.4564 h -6.45644 q -2.91581,-12.8087 -4.89439,-25.305 -1.87445,-12.6005 -2.81167,-23.0141 h 8.12261 q 0.31241,4.0613 0.62481,8.0185 0.41655,3.853 0.93723,8.1226 0.52068,4.2696 1.14549,9.2681 0.72896,4.9985 1.56204,11.2467 1.66618,-4.1654 2.81168,-7.2895 1.14549,-3.1241 2.08272,-5.9358 0.93722,-2.8116 1.77031,-5.7275 0.93722,-2.9158 1.97858,-6.5605 h 6.45643 q 1.04136,3.6447 1.87445,6.5605 0.83309,2.9159 1.77031,5.7275 0.93723,2.8117 1.97859,5.9358 1.04136,3.1241 2.6034,7.1854 0.93722,-5.7275 1.66617,-10.6219 0.72896,-4.8944 1.24964,-9.164 0.52068,-4.3737 0.93722,-8.435 0.41654,-4.0613 0.72895,-8.3309 h 7.8102 q -0.52068,5.2068 -1.24963,11.1426 -0.72895,5.9357 -1.77031,12.1839 -1.04136,6.2481 -2.29099,12.7046 -1.24964,6.3523 -2.6034,12.288 z"
     style="font-style:normal;font-variant:normal;font-weight:normal;font-stretch:normal;font-size:104.136px;line-height:125%;font-family:'Ubuntu Mono Ligaturized';-inkscape-font-specification:'Ubuntu Mono Ligaturized';font-variant-ligatures:normal;font-variant-caps:normal;font-variant-numeric:normal;font-feature-settings:normal;text-align:start;letter-spacing:0px;word-spacing:0px;writing-mode:lr-tb;text-anchor:start;fill:#398a96;fill-opacity:1;stroke:none;stroke-width:1px;stroke-linecap:butt;stroke-linejoin:miter;stroke-opacity:1"
     id="path878" />
  <path
     d="m 247.46546,620.0652 q 3.22821,0 5.72748,-0.2083 2.6034,-0.2082 4.26957,-0.5206 v -14.3708 q -1.66617,-0.5207 -4.0613,-0.8331 -2.29099,-0.3124 -4.89439,-0.3124 -2.39513,0 -4.68612,0.4165 -2.29099,0.3124 -4.06131,1.2497 -1.77031,0.9372 -2.9158,2.4992 -1.1455,1.4579 -1.1455,3.7489 0,4.6861 3.12408,6.5606 3.22822,1.7703 8.64329,1.7703 z m -0.83309,-43.3206 q 5.41507,0 9.05983,1.3538 3.7489,1.3538 6.03989,3.7489 2.29099,2.3951 3.22822,5.8316 0.93722,3.4365 0.93722,7.4978 v 30.1994 q -3.01994,0.5207 -8.01847,1.2497 -4.89439,0.7289 -10.10119,0.7289 -3.95717,0 -7.70607,-0.7289 -3.74889,-0.6248 -6.6647,-2.291 -2.91581,-1.7703 -4.68612,-4.7903 -1.77031,-3.0199 -1.77031,-7.706 0,-4.1655 1.77031,-6.9772 1.87445,-2.9158 4.68612,-4.6861 2.91581,-1.7703 6.56057,-2.4992 3.74889,-0.8331 7.49779,-0.8331 5.10266,0 9.99705,1.1455 v -2.3952 q 0,-2.1868 -0.52068,-4.1654 -0.41654,-2.0827 -1.77031,-3.7489 -1.24963,-1.6662 -3.54062,-2.6034 -2.18686,-1.0414 -5.72748,-1.0414 -4.47785,0 -7.8102,0.6249 -3.33235,0.6248 -5.10267,1.2496 l -1.04136,-7.0813 q 1.77032,-0.833 5.83162,-1.4579 4.16544,-0.6248 8.85156,-0.6248 z"
     style="font-style:normal;font-variant:normal;font-weight:normal;font-stretch:normal;font-size:104.136px;line-height:125%;font-family:'Ubuntu Mono Ligaturized';-inkscape-font-specification:'Ubuntu Mono Ligaturized';font-variant-ligatures:normal;font-variant-caps:normal;font-variant-numeric:normal;font-feature-settings:normal;text-align:start;letter-spacing:0px;word-spacing:0px;writing-mode:lr-tb;text-anchor:start;fill:#398a96;fill-opacity:1;stroke:none;stroke-width:1px;stroke-linecap:butt;stroke-linejoin:miter;stroke-opacity:1"
     id="path880" />
  <path
     d="m 309.53031,614.1295 q 0,-2.6034 -2.18686,-4.2696 -2.08272,-1.6662 -5.31093,-2.9158 -3.12408,-1.2497 -6.87298,-2.3952 -3.7489,-1.2496 -6.97711,-3.0199 -3.12408,-1.7703 -5.31094,-4.3737 -2.08272,-2.6034 -2.08272,-6.7689 0,-5.8316 4.68612,-9.6846 4.79026,-3.9572 14.89145,-3.9572 3.95717,0 8.12261,0.6248 4.26957,0.5207 7.28952,1.4579 l -1.56204,7.7061 q -0.83309,-0.4165 -2.29099,-0.8331 -1.45791,-0.5207 -3.33236,-0.8331 -1.87444,-0.4165 -4.0613,-0.6248 -2.08272,-0.2083 -4.0613,-0.2083 -11.24669,0 -11.24669,6.1441 0,2.1868 2.08272,3.7489 2.18685,1.4579 5.41507,2.7075 3.22822,1.2496 6.97711,2.6034 3.7489,1.2496 6.97711,3.1241 3.22822,1.8744 5.31094,4.582 2.18686,2.6034 2.18686,6.6647 0,6.5605 -5.10267,10.2053 -5.10266,3.5406 -16.14108,3.5406 -4.99853,0 -9.16397,-0.8331 -4.16544,-0.8331 -7.91433,-2.4992 l 1.66617,-7.8102 q 3.64476,1.6661 7.60193,2.8116 4.06131,1.0414 8.64329,1.0414 11.76737,0 11.76737,-5.9357 z"
     style="font-style:normal;font-variant:normal;font-weight:normal;font-stretch:normal;font-size:104.136px;line-height:125%;font-family:'Ubuntu Mono Ligaturized';-inkscape-font-specification:'Ubuntu Mono Ligaturized';font-variant-ligatures:normal;font-variant-caps:normal;font-variant-numeric:normal;font-feature-settings:normal;text-align:start;letter-spacing:0px;word-spacing:0px;writing-mode:lr-tb;text-anchor:start;fill:#398a96;fill-opacity:1;stroke:none;stroke-width:1px;stroke-linecap:butt;stroke-linejoin:miter;stroke-opacity:1"
     id="path882" />
  <path
     d="m 336.18893,626.2092 v -45.7157 q 10.62188,-3.6447 21.45202,-3.6447 3.33235,0 6.3523,0.3124 3.01994,0.2082 6.6647,1.0413 l -1.56204,7.602 q -3.33235,-0.9373 -5.93575,-1.1455 -2.49927,-0.3124 -5.51921,-0.3124 -6.3523,0 -12.91286,1.7703 v 40.0923 z"
     style="font-style:normal;font-variant:normal;font-weight:normal;font-stretch:normal;font-size:104.136px;line-height:125%;font-family:'Ubuntu Mono Ligaturized';-inkscape-font-specification:'Ubuntu Mono Ligaturized';font-variant-ligatures:normal;font-variant-caps:normal;font-variant-numeric:normal;font-feature-settings:normal;text-align:start;letter-spacing:0px;word-spacing:0px;writing-mode:lr-tb;text-anchor:start;fill:#e64592;fill-opacity:1;stroke:none;stroke-width:1px;stroke-linecap:butt;stroke-linejoin:miter;stroke-opacity:1"
     id="path884" />
  <path
     d="m 403.66887,620.0652 q 3.22822,0 5.72748,-0.2083 2.6034,-0.2082 4.26958,-0.5206 v -14.3708 q -1.66618,-0.5207 -4.06131,-0.8331 -2.29099,-0.3124 -4.89439,-0.3124 -2.39513,0 -4.68612,0.4165 -2.29099,0.3124 -4.0613,1.2497 -1.77031,0.9372 -2.91581,2.4992 -1.1455,1.4579 -1.1455,3.7489 0,4.6861 3.12408,6.5606 3.22822,1.7703 8.64329,1.7703 z m -0.83309,-43.3206 q 5.41508,0 9.05984,1.3538 3.74889,1.3538 6.03988,3.7489 2.291,2.3951 3.22822,5.8316 0.93722,3.4365 0.93722,7.4978 v 30.1994 q -3.01994,0.5207 -8.01847,1.2497 -4.89439,0.7289 -10.10119,0.7289 -3.95717,0 -7.70606,-0.7289 -3.7489,-0.6248 -6.66471,-2.291 -2.91581,-1.7703 -4.68612,-4.7903 -1.77031,-3.0199 -1.77031,-7.706 0,-4.1655 1.77031,-6.9772 1.87445,-2.9158 4.68612,-4.6861 2.91581,-1.7703 6.56057,-2.4992 3.7489,-0.8331 7.49779,-0.8331 5.10267,0 9.99706,1.1455 v -2.3952 q 0,-2.1868 -0.52068,-4.1654 -0.41655,-2.0827 -1.77031,-3.7489 -1.24964,-1.6662 -3.54063,-2.6034 -2.18685,-1.0414 -5.72748,-1.0414 -4.47785,0 -7.8102,0.6249 -3.33235,0.6248 -5.10266,1.2496 l -1.04136,-7.0813 q 1.77031,-0.833 5.83161,-1.4579 4.16544,-0.6248 8.85156,-0.6248 z"
     style="font-style:normal;font-variant:normal;font-weight:normal;font-stretch:normal;font-size:104.136px;line-height:125%;font-family:'Ubuntu Mono Ligaturized';-inkscape-font-specification:'Ubuntu Mono Ligaturized';font-variant-ligatures:normal;font-variant-caps:normal;font-variant-numeric:normal;font-feature-settings:normal;text-align:start;letter-spacing:0px;word-spacing:0px;writing-mode:lr-tb;text-anchor:start;fill:#398a96;fill-opacity:1;stroke:none;stroke-width:1px;stroke-linecap:butt;stroke-linejoin:miter;stroke-opacity:1"
     id="path886" />
  <path
     d="m 468.23297,602.1538 q 0,-8.435 -3.95717,-13.017 -3.95716,-4.6861 -10.30946,-4.6861 -3.54062,0 -5.62334,0.3124 -1.97859,0.3124 -3.12408,0.729 v 30.5118 q 1.4579,1.3538 4.26957,2.4993 2.81167,1.1455 5.83162,1.1455 3.43649,0 5.83161,-1.3538 2.49927,-1.3538 4.06131,-3.6448 1.56204,-2.3951 2.29099,-5.5192 0.72895,-3.2282 0.72895,-6.9771 z m 8.85156,0 q 0,5.5192 -1.4579,10.2053 -1.35377,4.582 -4.06131,7.9144 -2.6034,3.3323 -6.45643,5.2068 -3.85303,1.8744 -8.74742,1.8744 -3.85303,0 -6.76884,-0.9372 -2.91581,-0.9372 -4.37371,-2.0827 v 19.0569 h -8.64329 V 579.348 q 2.81167,-0.8331 7.18538,-1.6661 4.47785,-0.8331 10.20533,-0.8331 5.2068,0 9.47638,1.7703 4.26957,1.7703 7.28952,5.1026 3.01994,3.2283 4.68612,7.9144 1.66617,4.6861 1.66617,10.5177 z"
     style="font-style:normal;font-variant:normal;font-weight:normal;font-stretch:normal;font-size:104.136px;line-height:125%;font-family:'Ubuntu Mono Ligaturized';-inkscape-font-specification:'Ubuntu Mono Ligaturized';font-variant-ligatures:normal;font-variant-caps:normal;font-variant-numeric:normal;font-feature-settings:normal;text-align:start;letter-spacing:0px;word-spacing:0px;writing-mode:lr-tb;text-anchor:start;fill:#398a96;fill-opacity:1;stroke:none;stroke-width:1px;stroke-linecap:butt;stroke-linejoin:miter;stroke-opacity:1"
     id="path888" />
  <path
     d="m 503.01421,570.3923 q -2.70754,0 -4.68612,-1.8744 -1.97859,-1.8745 -1.97859,-5.1027 0,-3.2282 1.97859,-5.1026 1.97858,-1.8745 4.68612,-1.8745 2.81167,0 4.68612,1.8745 1.97858,1.8744 1.97858,5.1026 0,3.2282 -1.97858,5.1027 -1.87445,1.8744 -4.68612,1.8744 z m -2.18686,14.6832 h -13.95422 v -7.1854 h 22.49337 v 29.6788 q 0,7.1854 1.97859,9.6846 1.97858,2.3952 5.93575,2.3952 3.01994,0 5.51921,-0.729 2.6034,-0.7289 4.0613,-1.562 l 1.24963,7.2895 q -0.62481,0.3124 -1.77031,0.8331 -1.1455,0.4165 -2.70754,0.8331 -1.4579,0.4165 -3.33235,0.7289 -1.77031,0.3124 -3.74889,0.3124 -4.58199,0 -7.60193,-1.2496 -3.01995,-1.2496 -4.89439,-3.7489 -1.77032,-2.4993 -2.49927,-6.144 -0.72895,-3.7489 -0.72895,-8.6433 z"
     style="font-style:normal;font-variant:normal;font-weight:normal;font-stretch:normal;font-size:104.136px;line-height:125%;font-family:'Ubuntu Mono Ligaturized';-inkscape-font-specification:'Ubuntu Mono Ligaturized';font-variant-ligatures:normal;font-variant-caps:normal;font-variant-numeric:normal;font-feature-settings:normal;text-align:start;letter-spacing:0px;word-spacing:0px;writing-mode:lr-tb;text-anchor:start;fill:#398a96;fill-opacity:1;stroke:none;stroke-width:1px;stroke-linecap:butt;stroke-linejoin:miter;stroke-opacity:1"
     id="path890" />
  <path
     d="m 569.34865,588.0955 q -1.45791,-1.3538 -4.26958,-2.4993 -2.81167,-1.2496 -5.83161,-1.2496 -3.43649,0 -5.93576,1.3537 -2.39512,1.3538 -3.95716,3.7489 -1.56204,2.291 -2.291,5.6234 -0.72895,3.2282 -0.72895,6.9771 0,8.435 3.95717,13.017 3.95717,4.582 10.30946,4.582 3.22822,0 5.41508,-0.3124 2.29099,-0.3125 3.33235,-0.6249 z m 0,-32.5946 8.64329,-1.4579 v 70.8125 q -2.81168,0.833 -7.18539,1.6661 -4.37371,0.8331 -10.20533,0.8331 -5.2068,0 -9.47637,-1.7703 -4.26958,-1.7703 -7.28952,-4.9985 -3.01995,-3.3324 -4.68612,-8.0185 -1.66618,-4.6861 -1.66618,-10.5177 0,-5.6234 1.35377,-10.2054 1.4579,-4.6861 4.16544,-8.0184 2.70754,-3.3324 6.45643,-5.2068 3.85303,-1.8745 8.74743,-1.8745 3.85303,0 6.76884,0.9373 2.9158,0.9372 4.37371,1.9785 z"
     style="font-style:normal;font-variant:normal;font-weight:normal;font-stretch:normal;font-size:104.136px;line-height:125%;font-family:'Ubuntu Mono Ligaturized';-inkscape-font-specification:'Ubuntu Mono Ligaturized';font-variant-ligatures:normal;font-variant-caps:normal;font-variant-numeric:normal;font-feature-settings:normal;text-align:start;letter-spacing:0px;word-spacing:0px;writing-mode:lr-tb;text-anchor:start;fill:#e64592;fill-opacity:1;stroke:none;stroke-width:1px;stroke-linecap:butt;stroke-linejoin:miter;stroke-opacity:1"
     id="path892" />
  <path
     d="m 621.41646,588.0955 q -1.45791,-1.3538 -4.26958,-2.4993 -2.81167,-1.2496 -5.83161,-1.2496 -3.43649,0 -5.93576,1.3537 -2.39512,1.3538 -3.95716,3.7489 -1.56204,2.291 -2.291,5.6234 -0.72895,3.2282 -0.72895,6.9771 0,8.435 3.95717,13.017 3.95717,4.582 10.30946,4.582 3.22822,0 5.41508,-0.3124 2.29099,-0.3125 3.33235,-0.6249 z m 0,-32.5946 8.64329,-1.4579 v 70.8125 q -2.81168,0.833 -7.18539,1.6661 -4.37371,0.8331 -10.20533,0.8331 -5.2068,0 -9.47637,-1.7703 -4.26958,-1.7703 -7.28952,-4.9985 -3.01995,-3.3324 -4.68612,-8.0185 -1.66618,-4.6861 -1.66618,-10.5177 0,-5.6234 1.35377,-10.2054 1.4579,-4.6861 4.16544,-8.0184 2.70754,-3.3324 6.45643,-5.2068 3.85303,-1.8745 8.74743,-1.8745 3.85303,0 6.76884,0.9373 2.9158,0.9372 4.37371,1.9785 z"
     style="font-style:normal;font-variant:normal;font-weight:normal;font-stretch:normal;font-size:104.136px;line-height:125%;font-family:'Ubuntu Mono Ligaturized';-inkscape-font-specification:'Ubuntu Mono Ligaturized';font-variant-ligatures:normal;font-variant-caps:normal;font-variant-numeric:normal;font-feature-settings:normal;text-align:start;letter-spacing:0px;word-spacing:0px;writing-mode:lr-tb;text-anchor:start;fill:#e64592;fill-opacity:1;stroke:none;stroke-width:1px;stroke-linecap:butt;stroke-linejoin:miter;stroke-opacity:1"
     id="path894" />
  <path
     sodipodi:nodetypes="ccczcccc"
     inkscape:connector-curvature="0"
     id="path5532-8-9-1-8-3-2"
     d="m 391.36527,240.3154 -3.76534,-40.4415 -39.48963,-22.7451 c 0,0 -25.00932,-16.5357 -35.88608,2.2004 -10.87676,18.7362 15.91304,32.3122 15.91304,32.3122 l 19.74486,11.372 1.10605,13.0621 z"
     style="vector-effect:none;fill:#e2e1ff;fill-opacity:1;stroke:#398a96;stroke-width:5.291;stroke-linecap:round;stroke-linejoin:round;stroke-miterlimit:10;stroke-dasharray:none;stroke-dashoffset:0;stroke-opacity:1;paint-order:normal" />
  <path
     sodipodi:nodetypes="cccccccccccccczccccccc"
     inkscape:connector-curvature="0"
     id="path5530-0-1-9-2-5-8"
     d="m 348.63172,231.8103 -95.3655,-8.3419 -56.30994,-4.9381 -11.41203,19.7193 69.10104,39.8065 -22.79514,39.3884 -69.16449,-39.7032 -11.41326,19.7212 129.77786,184.5965 44.13055,-18.8234 -22.82383,39.4425 39.48547,22.7426 22.82802,-39.44 5.22885,43.506 c 0,0 96.40888,21.1242 150.30359,-72.1063 53.89465,-93.2306 -12.50927,-166.1065 -12.50927,-166.1065 l -40.30366,17.215 22.82356,-39.4428 -39.48547,-22.7426 -22.82784,39.4403 -5.70422,-47.4612 -31.31068,-2.7266"
     style="vector-effect:none;fill:#e2e1ff;fill-opacity:1;stroke:#398a96;stroke-width:5.291;stroke-linecap:round;stroke-linejoin:round;stroke-miterlimit:10;stroke-dasharray:none;stroke-dashoffset:0;stroke-opacity:1;paint-order:normal" />
  <circle
     transform="rotate(-15)"
     r="11.048543"
     cy="535.32623"
     cx="285.39078"
     id="path4927-2-8-5-2-8-2-7"
     style="vector-effect:none;fill:#398a96;fill-opacity:1;stroke:#398a96;stroke-width:2;stroke-linecap:round;stroke-linejoin:round;stroke-miterlimit:10;stroke-dasharray:none;stroke-dashoffset:0;stroke-opacity:1;paint-order:normal" />
  <circle
     transform="rotate(-15)"
     r="11.048543"
     cy="515.15765"
     cx="321.61319"
     id="path4927-4-7-1-5-6-4-9-3"
     style="vector-effect:none;fill:#398a96;fill-opacity:1;stroke:#398a96;stroke-width:2;stroke-linecap:round;stroke-linejoin:round;stroke-miterlimit:10;stroke-dasharray:none;stroke-dashoffset:0;stroke-opacity:1;paint-order:normal" />
  <circle
     transform="rotate(-15)"
     r="11.048543"
     cy="567.58356"
     cx="309.53384"
     id="path4927-5-3-7-8-7-8-1-6"
     style="vector-effect:none;fill:#398a96;fill-opacity:1;stroke:#398a96;stroke-width:2;stroke-linecap:round;stroke-linejoin:round;stroke-miterlimit:10;stroke-dasharray:none;stroke-dashoffset:0;stroke-opacity:1;paint-order:normal" />
  <circle
     transform="rotate(-15)"
     r="11.048543"
     cy="543.38275"
     cx="349.78006"
     id="path4927-6-7-4-1-8-4-2-1"
     style="vector-effect:none;fill:#398a96;fill-opacity:1;stroke:#398a96;stroke-width:2;stroke-linecap:round;stroke-linejoin:round;stroke-miterlimit:10;stroke-dasharray:none;stroke-dashoffset:0;stroke-opacity:1;paint-order:normal" />
  <circle
     transform="rotate(-15)"
     r="11.048543"
     cy="503.06912"
     cx="373.91537"
     id="path4927-0-1-7-7-6-5-7-2"
     style="vector-effect:none;fill:#398a96;fill-opacity:1;stroke:#398a96;stroke-width:2;stroke-linecap:round;stroke-linejoin:round;stroke-miterlimit:10;stroke-dasharray:none;stroke-dashoffset:0;stroke-opacity:1;paint-order:normal" />
  <circle
     transform="rotate(-15)"
     r="11.048543"
     cy="478.87613"
     cx="341.72452"
     id="path4927-47-21-5-6-2-4-0-9"
     style="vector-effect:none;fill:#398a96;fill-opacity:1;stroke:#398a96;stroke-width:2;stroke-linecap:round;stroke-linejoin:round;stroke-miterlimit:10;stroke-dasharray:none;stroke-dashoffset:0;stroke-opacity:1;paint-order:normal" />
  <path
     inkscape:connector-curvature="0"
     id="path3742-8"
     d="m 548.79132,337.5261 34.84393,20.1172"
     style="vector-effect:none;fill:#e64592;fill-opacity:1;stroke:#398a96;stroke-width:5.29134;stroke-linecap:round;stroke-linejoin:round;stroke-miterlimit:10;stroke-dasharray:none;stroke-dashoffset:0;stroke-opacity:1;paint-order:normal" />
  <path
     sodipodi:nodetypes="cc"
     inkscape:connector-curvature="0"
     id="path3742-4-4-0"
     d="m 558.3771,374.5616 19.11335,11.0351"
     style="vector-effect:none;fill:#e64592;fill-opacity:1;stroke:#398a96;stroke-width:5.29134;stroke-linecap:round;stroke-linejoin:round;stroke-miterlimit:10;stroke-dasharray:none;stroke-dashoffset:0;stroke-opacity:1;paint-order:normal" />
  <path
     sodipodi:nodetypes="cc"
     inkscape:connector-curvature="0"
     id="path3742-7-5-3"
     d="m 595.63525,363.6433 4.05941,2.3437"
     style="vector-effect:none;fill:#e64592;fill-opacity:1;stroke:#398a96;stroke-width:5.29134;stroke-linecap:round;stroke-linejoin:round;stroke-miterlimit:10;stroke-dasharray:none;stroke-dashoffset:0;stroke-opacity:1;paint-order:normal" />
</svg>
