<?xml version="1.0" encoding="UTF-8" standalone="no"?>
<svg
   version="1.0"
   viewBox="0 0 168.75224 51.635937"
   id="svg64"
   sodipodi:docname="cintesis.svg"
   width="168.75224"
   height="51.635937"
   inkscape:version="1.1.1 (3bf5ae0d25, 2021-09-20, custom)"
   xmlns:inkscape="http://www.inkscape.org/namespaces/inkscape"
   xmlns:sodipodi="http://sodipodi.sourceforge.net/DTD/sodipodi-0.dtd"
   xmlns="http://www.w3.org/2000/svg"
   xmlns:svg="http://www.w3.org/2000/svg">
  <defs
     id="defs68" />
  <sodipodi:namedview
     id="namedview66"
     pagecolor="#ffffff"
     bordercolor="#666666"
     borderopacity="1.0"
     inkscape:pageshadow="2"
     inkscape:pageopacity="0.0"
     inkscape:pagecheckerboard="0"
     showgrid="false"
     fit-margin-top="0"
     fit-margin-left="0"
     fit-margin-right="0"
     fit-margin-bottom="0"
     inkscape:zoom="3.5426477"
     inkscape:cx="102.60687"
     inkscape:cy="46.151922"
     inkscape:window-width="2560"
     inkscape:window-height="1402"
     inkscape:window-x="1440"
     inkscape:window-y="186"
     inkscape:window-maximized="1"
     inkscape:current-layer="svg64" />
  <g
     id="g65480"
     transform="translate(-174.57272,-168.87126)">
    <rect
       style="opacity:0.678713;fill:#ffffff;stroke-width:2.51339"
       id="rect59265"
       width="168.75224"
       height="51.635937"
       x="174.57272"
       y="168.87126" />
    <g
       aria-label="C"
       id="text9269-3-32"
       style="font-size:40px;line-height:1.25;fill:#2450a3;fill-opacity:1">
      <path
         d="m 204.44334,199.22171 q 0.88,1.72 1.12,3.32 -1.68,0.72 -3.44,1.04 -1.76,0.32 -3.8,0.32 -3.12,0 -5.64,-1 -2.48,-1.04 -4.2,-2.92 -1.72,-1.92 -2.64,-4.64 -0.92,-2.72 -0.92,-6.12 0,-3.44 0.92,-6.2 0.92,-2.8 2.64,-4.76 1.72,-1.96 4.2,-3 2.48,-1.08 5.56,-1.08 2.28,0 3.92,0.32 1.64,0.32 2.92,0.76 -0.08,0.92 -0.36,1.72 -0.24,0.76 -0.6,1.64 -0.6,-0.2 -1.16,-0.36 -0.56,-0.16 -1.2,-0.28 -0.64,-0.12 -1.44,-0.16 -0.76,-0.08 -1.76,-0.08 -4.36,0 -6.8,2.96 -2.4,2.96 -2.4,8.52 0,2.84 0.68,4.92 0.68,2.08 1.92,3.44 1.24,1.36 2.96,2.04 1.76,0.68 3.92,0.68 1.68,0 3.04,-0.28 1.36,-0.28 2.56,-0.8 z"
         style="font-family:Aller;-inkscape-font-specification:Aller;fill:#2450a3;fill-opacity:1"
         id="path58821" />
    </g>
    <g
       aria-label="Health."
       id="text9269-3-3-6"
       style="font-size:12.1884px;line-height:1.25;letter-spacing:1px;word-spacing:0px;fill:#2450a3;fill-opacity:1;stroke-width:1.14265">
      <path
         d="m 205.93037,209.11772 q 0.14626,-0.0244 0.30471,-0.0366 0.15845,-0.0122 0.3169,-0.0122 0.15844,0 0.31689,0.0122 0.15845,0.0122 0.30471,0.0366 v 3.60777 h 3.72965 v -3.60777 q 0.13408,-0.0244 0.29253,-0.0366 0.15845,-0.0122 0.31689,-0.0122 0.15845,0 0.3169,0.0122 0.17064,0.0122 0.3169,0.0366 v 8.76346 q -0.13407,0.0244 -0.29252,0.0366 -0.15845,0.0122 -0.32909,0.0122 -0.15845,0 -0.32908,-0.0122 -0.15845,-0.0122 -0.29253,-0.0366 v -4.05874 h -3.72965 v 4.05874 q -0.14626,0.0244 -0.30471,0.0366 -0.14626,0.0122 -0.31689,0.0122 -0.15845,0 -0.32909,-0.0122 -0.15845,-0.0122 -0.29252,-0.0366 z"
         style="font-family:Aller;-inkscape-font-specification:Aller;fill:#2450a3;fill-opacity:1"
         id="path58824" />
      <path
         d="m 216.09605,215.05347 q 0.0244,1.02383 0.52411,1.49917 0.51191,0.47535 1.49917,0.47535 0.86538,0 1.64543,-0.30471 0.0975,0.18283 0.15845,0.45097 0.0609,0.25596 0.0731,0.51192 -0.40221,0.17063 -0.88975,0.25595 -0.47535,0.0853 -1.06039,0.0853 -0.85319,0 -1.46261,-0.23158 -0.60942,-0.24377 -1.01164,-0.67036 -0.39003,-0.43878 -0.57285,-1.02383 -0.18283,-0.59723 -0.18283,-1.30416 0,-0.69473 0.17064,-1.29197 0.18283,-0.60942 0.54848,-1.0482 0.36565,-0.45097 0.91413,-0.70693 0.56066,-0.26814 1.31635,-0.26814 0.64598,0 1.13352,0.21939 0.48753,0.21939 0.81662,0.60942 0.32909,0.37784 0.49972,0.91413 0.17064,0.5241 0.17064,1.14571 0,0.17064 -0.0122,0.36565 -0.0122,0.18283 -0.0244,0.3169 z m 3.09586,-0.90194 q 0,-0.34128 -0.0975,-0.64599 -0.0853,-0.31689 -0.26814,-0.54847 -0.17064,-0.23158 -0.45097,-0.36566 -0.26815,-0.14626 -0.64599,-0.14626 -0.74349,0 -1.14571,0.45097 -0.39003,0.45097 -0.47535,1.25541 z"
         style="font-family:Aller;-inkscape-font-specification:Aller;fill:#2450a3;fill-opacity:1"
         id="path58826" />
      <path
         d="m 226.27392,214.94378 q -0.18283,-0.0244 -0.46316,-0.0488 -0.28034,-0.0244 -0.47535,-0.0244 -0.75568,0 -1.1579,0.28034 -0.39003,0.28033 -0.39003,0.85319 0,0.36565 0.13408,0.57285 0.13407,0.2072 0.32908,0.3169 0.20721,0.10969 0.45097,0.13407 0.24377,0.0244 0.46316,0.0244 0.28034,0 0.57286,-0.0244 0.30471,-0.0366 0.53629,-0.0975 z m 0,-1.18228 q 0,-0.71912 -0.36565,-0.99945 -0.36566,-0.28033 -1.0604,-0.28033 -0.42659,0 -0.80443,0.0731 -0.36565,0.0609 -0.71912,0.17064 -0.23158,-0.40222 -0.23158,-0.96289 0.41441,-0.13407 0.91413,-0.2072 0.49973,-0.0731 0.96289,-0.0731 1.21884,0 1.85264,0.56067 0.63379,0.54847 0.63379,1.76731 v 3.91248 q -0.42659,0.0975 -1.03601,0.19502 -0.60942,0.10969 -1.24322,0.10969 -0.59723,0 -1.08477,-0.10969 -0.47534,-0.1097 -0.81662,-0.35347 -0.32909,-0.24377 -0.51191,-0.62161 -0.18283,-0.37784 -0.18283,-0.91413 0,-0.5241 0.2072,-0.91413 0.2194,-0.40221 0.58505,-0.65817 0.36565,-0.26815 0.841,-0.39003 0.47535,-0.13407 0.99945,-0.13407 0.39003,0 0.63379,0.0244 0.25596,0.0122 0.4266,0.0366 z"
         style="font-family:Aller;-inkscape-font-specification:Aller;fill:#2450a3;fill-opacity:1"
         id="path58828" />
      <path
         d="m 230.24789,208.94708 q 0.13407,-0.0244 0.29252,-0.0366 0.17064,-0.0122 0.30471,-0.0122 0.13407,0 0.29252,0.0122 0.17064,0.0122 0.30471,0.0366 v 7.0449 q 0,0.34127 0.0609,0.53629 0.061,0.19501 0.15845,0.30471 0.1097,0.0975 0.24377,0.13407 0.14626,0.0244 0.30471,0.0244 0.1097,0 0.24377,-0.0122 0.14626,-0.0122 0.24377,-0.0366 0.10969,0.4266 0.10969,0.92632 -0.17063,0.0609 -0.4144,0.0731 -0.24377,0.0244 -0.45097,0.0244 -0.35347,0 -0.65818,-0.0853 -0.30471,-0.0853 -0.53629,-0.28033 -0.23158,-0.19502 -0.36565,-0.5241 -0.13407,-0.32909 -0.13407,-0.81663 z"
         style="font-family:Aller;-inkscape-font-specification:Aller;fill:#2450a3;fill-opacity:1"
         id="path58830" />
      <path
         d="m 235.13599,212.59141 h -0.95069 l -0.0488,-0.17063 2.09641,-2.34018 h 0.0975 v 1.54793 h 1.58449 q 0.0487,0.2072 0.0487,0.46316 0,0.13407 -0.0122,0.25596 -0.0122,0.12188 -0.0366,0.24376 h -1.58449 v 2.85209 q 0,0.51191 0.0366,0.81662 0.0488,0.30471 0.14626,0.47535 0.1097,0.15845 0.28033,0.21939 0.18283,0.0488 0.45098,0.0488 0.2072,0 0.39002,-0.0244 0.18283,-0.0366 0.32909,-0.0731 0.0853,0.24377 0.0975,0.49972 0.0244,0.25596 0.0244,0.45097 -0.24376,0.061 -0.51191,0.0853 -0.26814,0.0366 -0.57285,0.0366 -0.87757,0 -1.37729,-0.4266 -0.48754,-0.42659 -0.48754,-1.41385 z"
         style="font-family:Aller;-inkscape-font-specification:Aller;fill:#2450a3;fill-opacity:1"
         id="path58832" />
      <path
         d="m 240.25567,208.94708 q 0.13407,-0.0244 0.29252,-0.0366 0.17064,-0.0122 0.30471,-0.0122 0.13407,0 0.30471,0.0122 0.17064,0.0122 0.30471,0.0366 v 3.63215 q 0.1097,-0.17064 0.26815,-0.36566 0.17063,-0.19501 0.40221,-0.35346 0.24377,-0.17064 0.54848,-0.26814 0.3169,-0.1097 0.69474,-0.1097 1.07258,0 1.58449,0.62161 0.5241,0.60942 0.5241,1.81607 v 3.96123 q -0.13407,0.0244 -0.30471,0.0366 -0.15845,0.0122 -0.29252,0.0122 -0.13407,0 -0.30471,-0.0122 -0.15845,-0.0122 -0.29252,-0.0366 v -3.63214 q 0,-0.86538 -0.29252,-1.2676 -0.28034,-0.4144 -0.86538,-0.4144 -0.32909,0 -0.6338,0.12188 -0.30471,0.1097 -0.53628,0.36565 -0.23158,0.24377 -0.36566,0.64599 -0.13407,0.40222 -0.13407,0.97507 v 3.20555 q -0.13407,0.0244 -0.30471,0.0366 -0.17064,0.0122 -0.30471,0.0122 -0.12188,0 -0.29252,-0.0122 -0.17064,-0.0122 -0.30471,-0.0366 z"
         style="font-family:Aller;-inkscape-font-specification:Aller;fill:#2450a3;fill-opacity:1"
         id="path58834" />
      <path
         d="m 248.12992,217.88118 q -0.0244,-0.17064 -0.0488,-0.32909 -0.0122,-0.17063 -0.0122,-0.34127 0,-0.17064 0.0122,-0.34128 0.0244,-0.18282 0.0488,-0.35346 0.17063,-0.0244 0.32908,-0.0366 0.17064,-0.0122 0.34128,-0.0122 0.17064,0 0.34127,0.0122 0.17064,0.0122 0.34128,0.0366 0.0244,0.17064 0.0366,0.34127 0.0244,0.17064 0.0244,0.34128 0,0.17064 -0.0244,0.34127 -0.0122,0.17064 -0.0366,0.34128 -0.17064,0.0244 -0.34128,0.0366 -0.15845,0.0122 -0.32908,0.0122 -0.17064,0 -0.34128,-0.0122 -0.17064,-0.0122 -0.34127,-0.0366 z"
         style="font-family:Aller;-inkscape-font-specification:Aller;fill:#2450a3;fill-opacity:1"
         id="path58836" />
    </g>
    <g
       aria-label="Research."
       id="text9269-3-3-5-5"
       style="font-size:12.1884px;line-height:1.25;letter-spacing:1px;word-spacing:0px;fill:#2450a3;fill-opacity:1;stroke-width:1.14265">
      <path
         d="m 253.95114,209.10553 q 0.26815,-0.0244 0.48754,-0.0487 0.21939,-0.0244 0.42659,-0.0366 0.21939,-0.0244 0.45097,-0.0366 0.23158,-0.0122 0.51192,-0.0122 0.62161,0 1.23103,0.12188 0.60942,0.12189 1.08476,0.4266 0.47535,0.30471 0.76787,0.82881 0.30471,0.51191 0.30471,1.30416 0,0.47534 -0.15845,0.86537 -0.15845,0.39003 -0.40221,0.69474 -0.24377,0.30471 -0.56067,0.53629 -0.30471,0.21939 -0.59723,0.36565 l -0.14626,0.0731 2.54737,3.69309 q -0.32908,0.0366 -0.74349,0.0366 -0.32909,0 -0.65817,-0.0366 l -2.80334,-4.05874 v -0.0488 l 0.0975,-0.0244 q 0.32909,-0.0853 0.69474,-0.23158 0.36565,-0.14626 0.67036,-0.37784 0.3169,-0.24377 0.5241,-0.57285 0.20721,-0.34128 0.20721,-0.81663 0,-0.87756 -0.5241,-1.30415 -0.51192,-0.4266 -1.38948,-0.4266 -0.20721,0 -0.39003,0.0122 -0.17064,0.0122 -0.39003,0.0366 v 7.81276 q -0.13407,0.0122 -0.30471,0.0244 -0.15845,0.0122 -0.30471,0.0122 -0.14626,0 -0.3169,-0.0122 -0.17064,0 -0.3169,-0.0244 z"
         style="font-family:Aller;-inkscape-font-specification:Aller;fill:#2450a3;fill-opacity:1"
         id="path58839" />
      <path
         d="m 262.82486,215.05347 q 0.0244,1.02383 0.5241,1.49917 0.51191,0.47535 1.49917,0.47535 0.86538,0 1.64544,-0.30471 0.0975,0.18283 0.15845,0.45097 0.0609,0.25596 0.0731,0.51192 -0.40222,0.17063 -0.88976,0.25595 -0.47534,0.0853 -1.06039,0.0853 -0.85318,0 -1.4626,-0.23158 -0.60942,-0.24377 -1.01164,-0.67036 -0.39003,-0.43878 -0.57286,-1.02383 -0.18282,-0.59723 -0.18282,-1.30416 0,-0.69473 0.17063,-1.29197 0.18283,-0.60942 0.54848,-1.0482 0.36565,-0.45097 0.91413,-0.70693 0.56067,-0.26814 1.31635,-0.26814 0.64599,0 1.13352,0.21939 0.48754,0.21939 0.81662,0.60942 0.32909,0.37784 0.49973,0.91413 0.17064,0.5241 0.17064,1.14571 0,0.17064 -0.0122,0.36565 -0.0122,0.18283 -0.0244,0.3169 z m 3.09585,-0.90194 q 0,-0.34128 -0.0975,-0.64599 -0.0853,-0.31689 -0.26815,-0.54847 -0.17064,-0.23158 -0.45097,-0.36566 -0.26814,-0.14626 -0.64599,-0.14626 -0.74349,0 -1.1457,0.45097 -0.39003,0.45097 -0.47535,1.25541 z"
         style="font-family:Aller;-inkscape-font-specification:Aller;fill:#2450a3;fill-opacity:1"
         id="path58841" />
      <path
         d="m 269.58997,216.74766 q 0.32909,0.13407 0.71911,0.21939 0.40222,0.0731 0.79225,0.0731 0.28033,0 0.53629,-0.0609 0.25596,-0.0609 0.43878,-0.18283 0.19502,-0.12188 0.30471,-0.29252 0.12189,-0.18283 0.12189,-0.40222 0,-0.24376 -0.0975,-0.40221 -0.0853,-0.15845 -0.24377,-0.26815 -0.14626,-0.10969 -0.35346,-0.18282 -0.19502,-0.0853 -0.4266,-0.15845 l -0.42659,-0.15845 q -0.78006,-0.29252 -1.13352,-0.65818 -0.35347,-0.36565 -0.35347,-0.98726 0,-0.82881 0.58505,-1.31634 0.59723,-0.48754 1.74294,-0.48754 0.47535,0 0.92632,0.0975 0.46316,0.0853 0.80443,0.2072 -0.0244,0.24377 -0.0975,0.48754 -0.0609,0.24376 -0.15844,0.45097 -0.26815,-0.0975 -0.64599,-0.18283 -0.36565,-0.0975 -0.79225,-0.0975 -0.45097,0 -0.80443,0.15845 -0.34128,0.15845 -0.34128,0.56067 0,0.2072 0.0853,0.35346 0.0853,0.14626 0.23158,0.25596 0.14626,0.0975 0.32909,0.17064 0.19501,0.0731 0.41441,0.14626 l 0.53629,0.18282 q 0.29252,0.0975 0.54847,0.23158 0.26815,0.13408 0.45097,0.34128 0.19502,0.19501 0.30471,0.48753 0.12189,0.28034 0.12189,0.68255 0,0.45098 -0.18283,0.82882 -0.18282,0.36565 -0.5241,0.63379 -0.32909,0.25596 -0.80443,0.40222 -0.47535,0.14626 -1.04821,0.14626 -0.58504,0 -1.02382,-0.0853 -0.43878,-0.0731 -0.81662,-0.2072 0.0244,-0.24377 0.0975,-0.48754 0.0853,-0.25595 0.18283,-0.49972 z"
         style="font-family:Aller;-inkscape-font-specification:Aller;fill:#2450a3;fill-opacity:1"
         id="path58843" />
      <path
         d="m 277.14733,215.05347 q 0.0244,1.02383 0.5241,1.49917 0.51191,0.47535 1.49917,0.47535 0.86538,0 1.64544,-0.30471 0.0975,0.18283 0.15844,0.45097 0.0609,0.25596 0.0731,0.51192 -0.40221,0.17063 -0.88975,0.25595 -0.47535,0.0853 -1.06039,0.0853 -0.85319,0 -1.46261,-0.23158 -0.60942,-0.24377 -1.01163,-0.67036 -0.39003,-0.43878 -0.57286,-1.02383 -0.18283,-0.59723 -0.18283,-1.30416 0,-0.69473 0.17064,-1.29197 0.18283,-0.60942 0.54848,-1.0482 0.36565,-0.45097 0.91413,-0.70693 0.56067,-0.26814 1.31635,-0.26814 0.64598,0 1.13352,0.21939 0.48753,0.21939 0.81662,0.60942 0.32909,0.37784 0.49973,0.91413 0.17063,0.5241 0.17063,1.14571 0,0.17064 -0.0122,0.36565 -0.0122,0.18283 -0.0244,0.3169 z m 3.09585,-0.90194 q 0,-0.34128 -0.0975,-0.64599 -0.0853,-0.31689 -0.26814,-0.54847 -0.17064,-0.23158 -0.45097,-0.36566 -0.26815,-0.14626 -0.64599,-0.14626 -0.74349,0 -1.14571,0.45097 -0.39003,0.45097 -0.47534,1.25541 z"
         style="font-family:Aller;-inkscape-font-specification:Aller;fill:#2450a3;fill-opacity:1"
         id="path58845" />
      <path
         d="m 287.32519,214.94378 q -0.18283,-0.0244 -0.46316,-0.0488 -0.28033,-0.0244 -0.47535,-0.0244 -0.75568,0 -1.15789,0.28034 -0.39003,0.28033 -0.39003,0.85319 0,0.36565 0.13407,0.57285 0.13407,0.2072 0.32909,0.3169 0.2072,0.10969 0.45097,0.13407 0.24376,0.0244 0.46316,0.0244 0.28033,0 0.57285,-0.0244 0.30471,-0.0366 0.53629,-0.0975 z m 0,-1.18228 q 0,-0.71912 -0.36565,-0.99945 -0.36565,-0.28033 -1.06039,-0.28033 -0.4266,0 -0.80444,0.0731 -0.36565,0.0609 -0.71911,0.17064 -0.23158,-0.40222 -0.23158,-0.96289 0.4144,-0.13407 0.91413,-0.2072 0.49972,-0.0731 0.96288,-0.0731 1.21884,0 1.85264,0.56067 0.6338,0.54847 0.6338,1.76731 v 3.91248 q -0.4266,0.0975 -1.03602,0.19502 -0.60942,0.10969 -1.24322,0.10969 -0.59723,0 -1.08476,-0.10969 -0.47535,-0.1097 -0.81663,-0.35347 -0.32908,-0.24377 -0.51191,-0.62161 -0.18282,-0.37784 -0.18282,-0.91413 0,-0.5241 0.2072,-0.91413 0.21939,-0.40221 0.58504,-0.65817 0.36565,-0.26815 0.841,-0.39003 0.47535,-0.13407 0.99945,-0.13407 0.39003,0 0.6338,0.0244 0.25595,0.0122 0.42659,0.0366 z"
         style="font-family:Aller;-inkscape-font-specification:Aller;fill:#2450a3;fill-opacity:1"
         id="path58847" />
      <path
         d="m 291.32354,211.62853 q 0.13407,-0.0244 0.25595,-0.0366 0.12189,-0.0122 0.25596,-0.0122 0.13407,0 0.26814,0.0122 0.13408,0.0122 0.24377,0.0366 0.0366,0.18283 0.0731,0.48754 0.0366,0.29252 0.0366,0.49972 0.25595,-0.4144 0.67036,-0.71911 0.42659,-0.30471 1.08477,-0.30471 0.0975,0 0.19501,0.0122 0.1097,0 0.18283,0.0122 0.0244,0.1097 0.0366,0.23158 0.0122,0.12189 0.0122,0.25596 0,0.14626 -0.0244,0.30471 -0.0122,0.15845 -0.0366,0.30471 -0.0975,-0.0244 -0.2072,-0.0244 -0.0975,0 -0.15845,0 -0.32909,0 -0.6338,0.0975 -0.29252,0.0853 -0.53629,0.3169 -0.23158,0.23158 -0.37784,0.63379 -0.13407,0.40222 -0.13407,1.03602 v 3.10804 q -0.13407,0.0244 -0.30471,0.0366 -0.15845,0.0122 -0.29252,0.0122 -0.13408,0 -0.30471,-0.0122 -0.15845,-0.0122 -0.30471,-0.0366 z"
         style="font-family:Aller;-inkscape-font-specification:Aller;fill:#2450a3;fill-opacity:1"
         id="path58849" />
      <path
         d="m 300.84323,216.79641 q 0.0975,0.17064 0.17064,0.4266 0.0731,0.25595 0.0853,0.5241 -0.71911,0.28033 -1.64543,0.28033 -1.56012,0 -2.35236,-0.87756 -0.79225,-0.88976 -0.79225,-2.38893 0,-0.69474 0.19501,-1.29197 0.19502,-0.59723 0.57286,-1.03602 0.39003,-0.43878 0.96288,-0.69473 0.57286,-0.25596 1.32854,-0.25596 0.51191,0 0.90194,0.0609 0.39003,0.0609 0.74349,0.19502 0,0.2072 -0.0609,0.48753 -0.0487,0.26815 -0.14626,0.47535 -0.59723,-0.2072 -1.3651,-0.2072 -0.93851,0 -1.40167,0.62161 -0.46316,0.6216 -0.46316,1.64543 0,1.17009 0.5241,1.71856 0.52411,0.53629 1.43824,0.53629 0.36565,0 0.67036,-0.0488 0.3169,-0.0488 0.63379,-0.17064 z"
         style="font-family:Aller;-inkscape-font-specification:Aller;fill:#2450a3;fill-opacity:1"
         id="path58851" />
      <path
         d="m 303.48868,208.94708 q 0.13407,-0.0244 0.29252,-0.0366 0.17064,-0.0122 0.30471,-0.0122 0.13407,0 0.30471,0.0122 0.17064,0.0122 0.30471,0.0366 v 3.63215 q 0.1097,-0.17064 0.26815,-0.36566 0.17063,-0.19501 0.40221,-0.35346 0.24377,-0.17064 0.54848,-0.26814 0.3169,-0.1097 0.69474,-0.1097 1.07258,0 1.58449,0.62161 0.5241,0.60942 0.5241,1.81607 v 3.96123 q -0.13407,0.0244 -0.30471,0.0366 -0.15845,0.0122 -0.29252,0.0122 -0.13407,0 -0.30471,-0.0122 -0.15845,-0.0122 -0.29252,-0.0366 v -3.63214 q 0,-0.86538 -0.29252,-1.2676 -0.28034,-0.4144 -0.86538,-0.4144 -0.32909,0 -0.6338,0.12188 -0.30471,0.1097 -0.53629,0.36565 -0.23157,0.24377 -0.36565,0.64599 -0.13407,0.40222 -0.13407,0.97507 v 3.20555 q -0.13407,0.0244 -0.30471,0.0366 -0.17064,0.0122 -0.30471,0.0122 -0.12188,0 -0.29252,-0.0122 -0.17064,-0.0122 -0.30471,-0.0366 z"
         style="font-family:Aller;-inkscape-font-specification:Aller;fill:#2450a3;fill-opacity:1"
         id="path58853" />
      <path
         d="m 311.36292,217.88118 q -0.0244,-0.17064 -0.0487,-0.32909 -0.0122,-0.17063 -0.0122,-0.34127 0,-0.17064 0.0122,-0.34128 0.0244,-0.18282 0.0487,-0.35346 0.17064,-0.0244 0.32909,-0.0366 0.17064,-0.0122 0.34128,-0.0122 0.17063,0 0.34127,0.0122 0.17064,0.0122 0.34128,0.0366 0.0244,0.17064 0.0366,0.34127 0.0244,0.17064 0.0244,0.34128 0,0.17064 -0.0244,0.34127 -0.0122,0.17064 -0.0366,0.34128 -0.17064,0.0244 -0.34128,0.0366 -0.15845,0.0122 -0.32908,0.0122 -0.17064,0 -0.34128,-0.0122 -0.17064,-0.0122 -0.34128,-0.0366 z"
         style="font-family:Aller;-inkscape-font-specification:Aller;fill:#2450a3;fill-opacity:1"
         id="path58855" />
    </g>
    <g
       aria-label="I"
       id="text9269-7-4"
       style="font-size:40px;line-height:1.25;fill:#2450a3;fill-opacity:1">
      <path
         d="m 210.45877,174.9817 q 0.48,-0.08 1,-0.12 0.52,-0.04 1.04,-0.04 0.52,0 1.04,0.04 0.52,0.04 1,0.12 v 28.76 q -0.48,0.08 -1,0.12 -0.48,0.04 -1.04,0.04 -0.52,0 -1.08,-0.04 -0.52,-0.04 -0.96,-0.12 z"
         style="font-family:Aller;-inkscape-font-specification:Aller;fill:#2450a3;fill-opacity:1"
         id="path58858" />
    </g>
    <g
       aria-label="I"
       id="text9269-7-0-6"
       style="font-size:40px;line-height:1.25;fill:#2450a3;fill-opacity:1">
      <path
         d="m 305.9318,174.9817 q 0.48,-0.08 1,-0.12 0.52,-0.04 1.04,-0.04 0.52,0 1.04,0.04 0.52,0.04 1,0.12 v 28.76 q -0.48,0.08 -1,0.12 -0.48,0.04 -1.04,0.04 -0.52,0 -1.08,-0.04 -0.52,-0.04 -0.96,-0.12 z"
         style="font-family:Aller;-inkscape-font-specification:Aller;fill:#2450a3;fill-opacity:1"
         id="path58861" />
    </g>
    <g
       aria-label="N"
       id="text9269-35-6"
       style="font-size:40px;line-height:1.25;fill:#2450a3;fill-opacity:1"
       transform="translate(132.69337,91.008469)">
      <path
         d="M 86.881,83.973231 99.401074,105.57323 V 83.973231 c 0.32,-0.05333 0.653336,-0.09333 0.999996,-0.12 0.34667,-0.02667 0.69333,-0.04 1.04,-0.04 0.29333,0 0.6,0.01333 0.92,0.04 0.32,0.02667 0.62667,0.06667 0.92,0.12 v 28.759999 c -0.29333,0.0533 -0.61333,0.0933 -0.96,0.12 -0.32,0.0267 -0.62667,0.04 -0.92,0.04 -0.29333,0 -0.61333,-0.0133 -0.96,-0.04 -0.32,-0.0267 -0.626663,-0.0667 -0.919996,-0.12 L 86.881,91.253231 Z"
         style="font-family:Aller;-inkscape-font-specification:Aller;fill:#2450a3;fill-opacity:1"
         id="path57878-9"
         sodipodi:nodetypes="cccssscccscccc" />
    </g>
    <g
       aria-label="E"
       id="text9269-9-3"
       style="font-size:40px;line-height:1.25;fill:#2450a3;fill-opacity:1">
      <path
         d="m 263.50538,175.1417 h 15.8 q 0.12,0.8 0.12,1.76 0,0.44 -0.04,0.92 0,0.48 -0.08,0.88 h -11.72 v 8.24 h 9.36 q 0.08,0.4 0.12,0.88 0.04,0.44 0.04,0.88 0,0.44 -0.04,0.92 -0.04,0.48 -0.12,0.88 h -9.36 v 9.84 h 12.04 q 0.12,0.8 0.12,1.76 0,0.44 -0.04,0.92 0,0.48 -0.08,0.88 h -16.12 z"
         style="font-family:Aller;-inkscape-font-specification:Aller;fill:#2450a3;fill-opacity:1"
         id="path58864" />
    </g>
    <g
       aria-label="T"
       id="text9269-2-45"
       style="font-size:40px;line-height:1.25;fill:#2450a3;fill-opacity:1">
      <path
         d="m 247.81116,178.58171 h -7.48 q -0.08,-0.4 -0.12,-0.88 -0.04,-0.48 -0.04,-0.92 0,-0.44 0.04,-0.88 0.04,-0.48 0.12,-0.88 h 19.04 q 0.08,0.4 0.12,0.84 0.04,0.44 0.04,0.88 0,0.44 -0.04,0.96 -0.04,0.48 -0.12,0.88 h -7.48 v 25.2 q -0.92,0.12 -2,0.12 -1.12,0 -2.08,-0.12 z"
         style="font-family:Aller;-inkscape-font-specification:Aller;fill:#2450a3;fill-opacity:1"
         id="path58867" />
    </g>
    <g
       aria-label="S"
       id="text9269-0-5"
       style="font-size:40px;line-height:1.25;fill:#2450a3;fill-opacity:1">
      <path
         d="m 283.69655,199.06171 q 1.32,0.48 2.76,0.84 1.44,0.36 3.52,0.36 3.28,0 4.88,-1.32 1.64,-1.36 1.64,-3.64 0,-1.12 -0.36,-1.92 -0.32,-0.8 -1,-1.36 -0.68,-0.6 -1.72,-1.08 -1,-0.48 -2.36,-1.04 l -2.28,-0.92 q -1.16,-0.48 -2.12,-1.04 -0.96,-0.6 -1.68,-1.44 -0.68,-0.84 -1.08,-1.92 -0.4,-1.12 -0.4,-2.64 0,-3.64 2.48,-5.68 2.48,-2.08 6.96,-2.08 1.92,0 3.64,0.32 1.72,0.32 3.04,0.8 -0.2,1.68 -0.88,3.32 -1.08,-0.4 -2.52,-0.72 -1.4,-0.32 -3.2,-0.32 -2.52,0 -3.88,1.04 -1.36,1 -1.36,3.04 0,0.84 0.32,1.52 0.36,0.64 0.92,1.16 0.56,0.48 1.32,0.88 0.76,0.4 1.6,0.72 l 2.24,0.88 q 1.6,0.64 2.84,1.36 1.24,0.68 2.12,1.64 0.88,0.92 1.32,2.2 0.48,1.28 0.48,3 0,4.12 -2.84,6.52 -2.84,2.36 -7.96,2.36 -1.24,0 -2.24,-0.08 -1,-0.08 -1.88,-0.24 -0.84,-0.16 -1.64,-0.4 -0.8,-0.24 -1.64,-0.52 0.08,-0.88 0.36,-1.8 0.28,-0.92 0.6,-1.8 z"
         style="font-family:Aller;-inkscape-font-specification:Aller;fill:#2450a3;fill-opacity:1"
         id="path58870" />
    </g>
    <g
       aria-label="S"
       id="text9269-0-9-7"
       style="font-size:40px;line-height:1.25;fill:#2450a3;fill-opacity:1">
      <path
         d="m 316.11076,199.06171 q 1.32,0.48 2.76,0.84 1.44,0.36 3.52,0.36 3.28,0 4.88,-1.32 1.64,-1.36 1.64,-3.64 0,-1.12 -0.36,-1.92 -0.32,-0.8 -1,-1.36 -0.68,-0.6 -1.72,-1.08 -1,-0.48 -2.36,-1.04 l -2.28,-0.92 q -1.16,-0.48 -2.12,-1.04 -0.96,-0.6 -1.68,-1.44 -0.68,-0.84 -1.08,-1.92 -0.4,-1.12 -0.4,-2.64 0,-3.64 2.48,-5.68 2.48,-2.08 6.96,-2.08 1.92,0 3.64,0.32 1.72,0.32 3.04,0.8 -0.2,1.68 -0.88,3.32 -1.08,-0.4 -2.52,-0.72 -1.4,-0.32 -3.2,-0.32 -2.52,0 -3.88,1.04 -1.36,1 -1.36,3.04 0,0.84 0.32,1.52 0.36,0.64 0.92,1.16 0.56,0.48 1.32,0.88 0.76,0.4 1.6,0.72 l 2.24,0.88 q 1.6,0.64 2.84,1.36 1.24,0.68 2.12,1.64 0.88,0.92 1.32,2.2 0.48,1.28 0.48,3 0,4.12 -2.84,6.52 -2.84,2.36 -7.96,2.36 -1.24,0 -2.24,-0.08 -1,-0.08 -1.88,-0.24 -0.84,-0.16 -1.64,-0.4 -0.8,-0.24 -1.64,-0.52 0.08,-0.88 0.36,-1.8 0.28,-0.92 0.6,-1.8 z"
         style="font-family:Aller;-inkscape-font-specification:Aller;fill:#2450a3;fill-opacity:1"
         id="path58873" />
    </g>
  </g>
</svg>
